# xmcd CD database file
#
# Track frame offsets:
#	150
#	15677
#	33240
#	46545
#	62957
#	78953
#	92710
#	104175
#	115191
#	130172
#	142899
#	158348
#
# Disc length: 2292 seconds
#
# Revision: 1
# Processed by: cddbd v1.5.2PL0 Copyright (c) Steve Scherf et al.
# Submitted via: CDex 1.70beta2
#
DISCID=8f08f20c
DTITLE=Doyle Lawson and Quicksilver - The Hard Game Of Love
DYEAR=2002
DGENRE=Bluegrass
TTITLE0=Blue Train (Of The Heartbreak Line)
TTITLE1=The Hard Game Of Love
TTITLE2=Oak Ridge Rendezvous
TTITLE3=We Missed You
TTITLE4=Nightingale
TTITLE5=Standing Room Only
TTITLE6=Poor Boy Working Blues
TTITLE7=In My Dreams
TTITLE8=A Thing Of The Past
TTITLE9=My Trust In You
TTITLE10=The Hand Made Cross
TTITLE11=As Long As The World Stands
EXTD=YEAR: 2002
EXTT0=
EXTT1=
EXTT2=
EXTT3=
EXTT4=
EXTT5=
EXTT6=
EXTT7=
EXTT8=
EXTT9=
EXTT10=
EXTT11=
PLAYORDER=
